EMG
version=1
nRows=27
nColumns=17
inDegrees=no
endheader
time	_right_gast_med	_right_glut_max	_left_gast_med	_left_glut_max	_right_glut_med	_right_bic_fem	_right_rect_fem	_right_vast_lat	_right_vast_med	_right_tens_fasc_lat	_left_glut_med	_left_bic_fem	_left_rect_fem	_left_vast_lat	_left_vast_med	_left_tens_fasc_lat
      2.15000000	     -0.02259801	     -0.00188941	      0.02527152	      0.00177553	      0.01152693	      0.01660226	      0.06365693	     -0.02563722	     -0.44173831	      0.04309522	      0.01524837	     -0.01167175	     -0.00104871	      0.00526417	     -0.01880201	      0.00256592
      2.16000000	     -0.02910115	     -0.01894048	      0.01351372	     -0.00193083	      0.01221781	      0.01351236	      0.05640943	     -0.01512771	     -0.00619835	      0.05480738	      0.01497424	     -0.00935548	      0.00020113	      0.00427395	     -0.00350680	      0.00320270
      2.17000000	     -0.02692211	     -0.02434923	      0.01926519	      0.00024748	      0.01092001	      0.00686080	     -0.01063343	      0.05076305	      0.42146763	      0.05106914	      0.01282380	     -0.00738693	      0.00543264	      0.00848531	      0.01603862	      0.00078875
      2.18000000	     -0.01241920	     -0.02206736	      0.02807048	     -0.00359145	      0.00979101	      0.00303767	     -0.06177982	      0.06112995	      0.52881444	      0.02486059	      0.00979166	     -0.00944248	      0.01267685	      0.01394378	      0.01937493	      0.00085349
      2.19000000	     -0.00248123	     -0.00780712	      0.02622316	     -0.02001113	      0.01201869	      0.01287846	     -0.06234137	      0.01185495	      0.40632895	     -0.00628400	      0.00882429	     -0.00655553	      0.01579824	      0.01384359	      0.01173207	     -0.00277826
      2.20000000	     -0.01048913	      0.01380826	      0.00594568	     -0.03933701	      0.00997026	      0.01864295	     -0.03609388	     -0.00186257	      0.19591840	     -0.02150775	      0.00966292	      0.00298932	      0.01191526	      0.00932242	      0.00792604	     -0.01213585
      2.21000000	     -0.02321370	      0.03892562	      0.00199041	     -0.06331527	     -0.00817968	      0.02284220	     -0.00972913	      0.00670896	      0.00203855	     -0.02947566	      0.01065150	      0.01332950	      0.01060659	      0.00859943	      0.01207324	     -0.01206570
      2.22000000	     -0.01899616	      0.03893922	      0.01419333	     -0.09778024	     -0.03229861	      0.02147244	      0.00874153	      0.00622681	     -0.08344163	     -0.03407343	      0.00955240	      0.02088906	      0.00890643	      0.01467051	      0.01336013	     -0.00631379
      2.23000000	     -0.01380695	      0.01872341	      0.01163698	     -0.12296581	     -0.03826742	     -0.00000823	      0.01925839	      0.01075068	     -0.02397802	     -0.02047049	      0.00620741	      0.02234441	      0.00906840	      0.01883633	      0.00244589	     -0.00139801
      2.24000000	     -0.07322088	      0.03272970	      0.00547373	     -0.12908477	     -0.02871104	     -0.03879666	      0.02456018	      0.00207545	      0.09115741	      0.00699150	      0.00700098	      0.01820454	      0.01406294	      0.01751678	     -0.00864431	      0.00438468
      2.25000000	      0.01295741	      0.03356977	      0.00564814	     -0.11671974	     -0.01906635	     -0.08388252	      0.02851341	     -0.00819206	      0.15128386	      0.01580697	      0.01016491	      0.01467045	      0.01206013	      0.01253864	      0.00367224	     -0.00105508
      2.26000000	      0.72042382	     -0.01418206	      0.00556328	     -0.09423405	     -0.01305452	     -0.08675873	      0.03233865	      0.02636481	      0.06226385	      0.00492712	      0.00820241	      0.01321592	      0.00112153	      0.00808759	      0.04363880	     -0.01925309
      2.27000000	      0.82857084	     -0.03442181	      0.00208508	     -0.07516240	      0.00515801	     -0.03265544	      0.04733269	      0.05582744	     -0.09839810	     -0.00660634	      0.00345945	      0.00936512	     -0.00165636	      0.00568382	      0.08746297	     -0.02107613
      2.28000000	     -1.04998755	     -0.00058880	     -0.00251096	     -0.05160495	      0.03640076	      0.00614469	      0.06720188	      0.03597333	     -0.10128994	     -0.01563830	      0.00005401	      0.00355259	      0.01056322	      0.00125011	      0.09499960	      0.00518658
      2.29000000	     -1.88342273	      0.01851914	     -0.00818165	     -0.00116143	      0.05144460	      0.01894023	      0.05014934	     -0.00903021	      0.00622964	     -0.02526291	     -0.00267334	      0.00258625	      0.02821772	      0.00292110	      0.02803501	      0.02713968
      2.30000000	     -0.24984463	      0.02142957	     -0.01237809	      0.05008899	      0.04184937	      0.03692381	     -0.00127717	     -0.03863011	      0.04519238	     -0.03607444	      0.00066922	      0.00637357	      0.03544065	      0.01857078	     -0.07333671	      0.02003769
      2.31000000	      0.90803599	      0.05647865	     -0.01492520	      0.03426358	      0.02619421	      0.03418244	     -0.02660355	     -0.00775865	     -0.04106027	     -0.03908834	      0.00738415	      0.01047553	      0.02439534	      0.03625989	     -0.09403166	      0.00084496
      2.32000000	      0.53793812	      0.06118290	     -0.01827278	     -0.04507487	      0.01558484	      0.02250877	     -0.02384231	      0.03083731	     -0.11009083	     -0.01910086	      0.01037540	      0.00840230	      0.00329289	      0.03077142	     -0.01456556	     -0.00353341
      2.33000000	      0.38687199	     -0.06395529	     -0.01528714	     -0.10915406	      0.00582543	      0.03578409	     -0.02760740	     -0.00275836	     -0.04068745	      0.02510615	      0.00486333	     -0.00247948	     -0.00900240	     -0.00249558	      0.03781378	      0.01926107
      2.34000000	      1.21050453	     -0.12538846	      0.00638705	     -0.09747668	      0.00061811	      0.04746160	     -0.02919336	     -0.02437892	      0.03660049	      0.07378966	     -0.00806988	     -0.01559400	     -0.01528843	     -0.03033817	      0.00915177	      0.04473419
      2.35000000	      0.78181845	      0.05071146	      0.03736142	     -0.00322838	     -0.00068559	      0.03876569	     -0.02698120	     -0.00509822	      0.04203977	      0.08483089	     -0.01422398	     -0.02961075	     -0.01781413	     -0.02897125	     -0.00870837	      0.05338634
      2.36000000	     -1.81161249	      0.14023139	      0.04885335	      0.04191632	      0.00138754	      0.01839717	     -0.01737514	      0.01341450	      0.02725979	      0.05165916	     -0.01054709	     -0.03635144	     -0.01134785	     -0.01094777	      0.00469715	      0.04240143
      2.37000000	     -2.45055628	      0.03432691	      0.04785670	      0.01228040	      0.00642792	      0.00448440	      0.00274295	      0.02585597	      0.02097088	      0.02299626	     -0.00446852	     -0.01564867	     -0.00904414	      0.00542365	      0.01313942	      0.00698850
      2.38000000	      0.44005516	     -0.05781152	      0.03997548	      0.02526335	      0.00883729	      0.00625417	      0.02088589	      0.02827287	      0.01965496	      0.01516938	      0.00686788	      0.03071217	     -0.00408195	      0.01761183	      0.02754129	     -0.01398434
      2.39000000	      2.72250867	     -0.05008790	      0.01007675	      0.01632480	      0.01071317	      0.00820645	      0.02447075	      0.01982062	      0.01717898	      0.01407625	      0.02350989	      0.07012726	      0.01934051	      0.02548284	      0.04733489	     -0.00612555
      2.40000000	      1.86733186	      0.04087441	     -0.01215344	      0.01661942	      0.01566101	      0.00422694	      0.01735514	     -0.00237439	      0.01352558	      0.01300617	      0.03310873	      0.07141885	      0.03271742	      0.02479311	      0.03922484	      0.00497582
      2.41000000	      0.10848787	      0.12050173	     -0.00272119	      0.13212270	      0.01680567	      0.00795464	      0.01137132	     -0.02630826	      0.01129430	      0.01265708	      0.03323188	      0.04216214	      0.02332639	      0.01983060	      0.00121873	      0.00886386
